{
    "asset" : {
        "generator" : "Khronos glTF Blender I/O v0.9.36",
        "version" : "2.0"
    },
    "extensionsUsed" : [
        "KHR_materials_unlit"
    ],
    "extensionsRequired" : [
        "KHR_materials_unlit"
    ],
    "scene" : 0,
    "scenes" : [
        {
            "name" : "Scene",
            "nodes" : [
                0,
                1
            ]
        }
    ],
    "nodes" : [
        {
            "mesh" : 0,
            "name" : "Bedroom",
            "rotation" : [
                0,
                -0.7071067690849304,
                0,
                0.7071067690849304
            ],
            "translation" : [
                0.5,
                0,
                0.5
            ]
        },
        {
            "mesh" : 1,
            "name" : "Doorway",
            "rotation" : [
                0,
                -0.7071067690849304,
                0,
                0.7071067690849304
            ],
            "translation" : [
                0.5,
                0,
                0.5
            ]
        }
    ],
    "materials" : [
        {
            "extensions" : {
                "KHR_materials_unlit" : {}
            },
            "name" : "Standard",
            "pbrMetallicRoughness" : {
                "baseColorTexture" : {
                    "index" : 0,
                    "texCoord" : 0
                }
            }
        }
    ],
    "meshes" : [
        {
            "name" : "BedroomMesh",
            "primitives" : [
                {
                    "attributes" : {
                        "POSITION" : 0,
                        "NORMAL" : 1,
                        "TEXCOORD_0" : 2
                    },
                    "indices" : 3,
                    "material" : 0
                }
            ]
        },
        {
            "name" : "DoorwayMesh",
            "primitives" : [
                {
                    "attributes" : {
                        "POSITION" : 4,
                        "NORMAL" : 5,
                        "TEXCOORD_0" : 6
                    },
                    "indices" : 7,
                    "material" : 0
                }
            ]
        }
    ],
    "textures" : [
        {
            "sampler" : 0,
            "source" : 0
        }
    ],
    "images" : [
        {
            "bufferView" : 4,
            "mimeType" : "image/png",
            "name" : "palette"
        }
    ],
    "accessors" : [
        {
            "bufferView" : 0,
            "componentType" : 5126,
            "count" : 274,
            "max" : [
                2.5,
                1.632993221282959,
                1.75
            ],
            "min" : [
                -1.75,
                0,
                -1.5
            ],
            "type" : "VEC3"
        },
        {
            "bufferView" : 1,
            "componentType" : 5126,
            "count" : 274,
            "type" : "VEC3"
        },
        {
            "bufferView" : 2,
            "componentType" : 5126,
            "count" : 274,
            "type" : "VEC2"
        },
        {
            "bufferView" : 3,
            "componentType" : 5123,
            "count" : 564,
            "type" : "SCALAR"
        },
        {
            "bufferView" : 5,
            "componentType" : 5126,
            "count" : 186,
            "max" : [
                0.5,
                1.4288690090179443,
                -1.4375
            ],
            "min" : [
                -0.5,
                0,
                -1.5625
            ],
            "type" : "VEC3"
        },
        {
            "bufferView" : 6,
            "componentType" : 5126,
            "count" : 186,
            "type" : "VEC3"
        },
        {
            "bufferView" : 7,
            "componentType" : 5126,
            "count" : 186,
            "type" : "VEC2"
        },
        {
            "bufferView" : 8,
            "componentType" : 5123,
            "count" : 324,
            "type" : "SCALAR"
        }
    ],
    "bufferViews" : [
        {
            "buffer" : 0,
            "byteLength" : 3288,
            "byteOffset" : 0
        },
        {
            "buffer" : 0,
            "byteLength" : 3288,
            "byteOffset" : 3288
        },
        {
            "buffer" : 0,
            "byteLength" : 2192,
            "byteOffset" : 6576
        },
        {
            "buffer" : 0,
            "byteLength" : 1128,
            "byteOffset" : 8768
        },
        {
            "buffer" : 0,
            "byteLength" : 330,
            "byteOffset" : 9896
        },
        {
            "buffer" : 0,
            "byteLength" : 2232,
            "byteOffset" : 10228
        },
        {
            "buffer" : 0,
            "byteLength" : 2232,
            "byteOffset" : 12460
        },
        {
            "buffer" : 0,
            "byteLength" : 1488,
            "byteOffset" : 14692
        },
        {
            "buffer" : 0,
            "byteLength" : 648,
            "byteOffset" : 16180
        }
    ],
    "samplers" : [
        {
            "magFilter" : 9728,
            "minFilter" : 9984
        }
    ],
    "buffers" : [
        {
            "byteLength" : 16828,
            "uri" : "data:application/octet-stream;base64,"
        }
    ]
}
